<svg xmlns="http://www.w3.org/2000/svg" version="1.1" xmlns:xlink="http://www.w3.org/1999/xlink" xmlns:svgjs="http://svgjs.com/svgjs" width="1440" height="560" preserveAspectRatio="none" viewBox="0 0 1440 560">
    <g mask="url(&quot;#SvgjsMask1086&quot;)" fill="none">
        <rect width="1440" height="560" x="0" y="0" fill="rgba(66, 153, 225, 0.04)"></rect>
        <path d="M0,329.181C78.818,342.513,164.859,404.37,232.651,362.011C300.242,319.777,274.311,212.816,304.368,139C332.68,69.469,402.701,17.025,403.693,-58.042C404.728,-136.416,363.972,-211.8,309.75,-268.4C256.85,-323.62,182.522,-350.935,107.75,-366.961C36.933,-382.139,-40.214,-389.838,-104.905,-357.273C-166.176,-326.43,-182.773,-249.132,-228.28,-197.805C-274.525,-145.646,-362.538,-122.531,-373.993,-53.772C-385.42,14.823,-315.89,67.993,-282.742,129.124C-252.241,185.375,-239.265,254.066,-187.03,291.025C-134.016,328.536,-64.033,318.35,0,329.181" fill="rgba(43, 141, 221, 0.04)"></path>
        <path d="M1440 1230.271C1562.858 1219.708 1662.19 1128.15 1748.578 1040.157 1822.271 965.094 1857.046 865.848 1894.337 767.489 1929.241 675.425 1947.099 583.14 1958.906 485.39300000000003 1974.806 353.762 2047.675 207.221 1975.444 96.03500000000003 1904.219-13.602999999999952 1745.469-19.354000000000042 1616.616-41.49699999999996 1499.625-61.601 1374.75-77.59500000000003 1268.075-25.523000000000025 1167.157 23.738000000000056 1133.754 146.046 1059.615 230.394 984.761 315.55600000000004 852.169 361.077 830.454 472.361 808.726 583.711 907.462 678.527 951.793 782.957 997.615 890.9 1008.864 1017.104 1095.326 1096.3229999999999 1188.087 1181.3139999999999 1314.652 1241.048 1440 1230.271" fill="rgba(89, 165, 229, 0.04)"></path>
    </g>
    <defs>
        <mask id="SvgjsMask1086">
            <rect width="1440" height="560" fill="#ffffff"></rect>
        </mask>
    </defs>
</svg>