<svg xmlns="http://www.w3.org/2000/svg" version="1.1" xmlns:xlink="http://www.w3.org/1999/xlink" xmlns:svgjs="http://svgjs.com/svgjs" width="1440" height="560" preserveAspectRatio="none" viewBox="0 0 1440 560">
    <g mask="url(&quot;#SvgjsMask1504&quot;)" fill="none">
        <rect width="1440" height="560" x="0" y="0" fill="url(#SvgjsLinearGradient1505)"></rect>
        <path d="M0 0L512.05 0L0 111.21z" fill="rgba(255, 255, 255, .1)"></path>
        <path d="M0 111.21L512.05 0L551.0699999999999 0L0 152.84z" fill="rgba(255, 255, 255, .075)"></path>
        <path d="M0 152.84L551.0699999999999 0L995.8499999999999 0L0 389.68z" fill="rgba(255, 255, 255, .05)"></path>
        <path d="M0 389.68L995.8499999999999 0L1138.34 0L0 506.96000000000004z" fill="rgba(255, 255, 255, .025)"></path>
        <path d="M1440 560L1054.54 560L1440 409.43z" fill="rgba(0, 0, 0, .1)"></path>
        <path d="M1440 409.43L1054.54 560L1035.42 560L1440 309.49z" fill="rgba(0, 0, 0, .075)"></path>
        <path d="M1440 309.49L1035.42 560L842.21 560L1440 209.47000000000003z" fill="rgba(0, 0, 0, .05)"></path>
        <path d="M1440 209.47000000000003L842.21 560L281.55000000000007 560L1440 68.14000000000001z" fill="rgba(0, 0, 0, .025)"></path>
    </g>
    <defs>
        <mask id="SvgjsMask1504">
            <rect width="1440" height="560" fill="#ffffff"></rect>
        </mask>
        <linearGradient x1="50%" y1="0%" x2="50%" y2="100%" gradientUnits="userSpaceOnUse" id="SvgjsLinearGradient1505">
            <stop stop-color="rgba(7, 86, 167, 1)" offset="0"></stop>
            <stop stop-color="rgba(66, 153, 225, 0)" offset="0"></stop>
        </linearGradient>
    </defs>
</svg>